GREETZ: UnDeaD - BadGirl2k9 - virusofsaten - foxyb - WICCYWOLF - lizzymwah1

VISIT http://www.seedboxworld.biz/ for all ur seedbox needs!

RELEASE NAME: Clash Of The Titans 3D.2010.DVDRip.XViD-SDTeam
RELEASED BY: UnDeaD & BadGirl2k9
SIZE: 436 MB

LANGUAGE: English
IMDb: http://www.imdb.com/title/tt0800320/

PLOT: The mortal son of the god Zeus embarks on a 
perilous journey to stop the underworld and its minions 
from spreading their evil to Earth as well as the heavens.

COVER IMAGE: http://bayimg.com/bAOkIaAcO
SCREENS: 
http://i658.photobucket.com/albums/uu309/BadGirl2k9/screens/vlcsnap-2010-09-11-22h58m10s66.png 
http://i658.photobucket.com/albums/uu309/BadGirl2k9/screens/vlcsnap-2010-09-11-22h58m16s132.png 
http://i658.photobucket.com/albums/uu309/BadGirl2k9/screens/vlcsnap-2010-09-11-22h58m26s222.png

General
Format                           : AVI
Format/Info                      : Audio Video Interleave
File size                        : 437 MiB
Duration                         : 1h 46mn
Overall bit rate                 : 575 Kbps
Writing application              : MEncoder SVN-r22963
Writing library                  : MPlayer

Video
ID                               : 0
Format                           : MPEG-4 Visual
Format profile                   : Simple@L3
Format settings, BVOP            : No
Format settings, QPel            : No
Format settings, GMC             : No warppoints
Format settings, Matrix          : Default (H.263)
Codec ID                         : XVID
Codec ID/Hint                    : XviD
Duration                         : 1h 46mn
Bit rate                         : 500 Kbps
Width                            : 512 pixels
Height                           : 208 pixels
Display aspect ratio             : 2.462
Frame rate                       : 20.000 fps
Resolution                       : 8 bits
Colorimetry                      : 4:2:0
Scan type                        : Progressive
Bits/(Pixel*Frame)               : 0.235
Stream size                      : 379 MiB (87%)
Writing library                  : XviD 1.1.2 (UTC 2006-11-01)

Audio
ID                               : 1
Format                           : MPEG Audio
Format version                   : Version 1
Format profile                   : Layer 3
Codec ID                         : 55
Codec ID/Hint                    : MP3
Duration                         : 1h 46mn
Bit rate mode                    : Constant
Bit rate                         : 64.0 Kbps
Channel(s)                       : 2 channels
Sampling rate                    : 44.1 KHz
Stream size                      : 48.6 MiB (11%)
Alignment                        : Aligned on interleaves
Interleave, duration             : 26 ms (0.52 video frame)
Interleave, preload duration     : 522 ms
Writing library                  : LAMEUUULAME3.97

GROUP NOTE: Big thanks to seedboxworld.biz for the seedbox!
